<svg width="46" height="46" viewBox="0 0 46 46" fill="none" xmlns="http://www.w3.org/2000/svg">
<rect x="0.5" y="0.5" width="45" height="45" rx="7.5" fill="white"/>
<rect x="0.5" y="0.5" width="45" height="45" rx="7.5" stroke="#D1D4D7"/>
<path d="M30.0397 22.3267C30.0654 20.3196 31.1355 18.4205 32.833 17.3692C31.7621 15.8286 29.9684 14.8518 28.1022 14.793C26.1117 14.5826 24.1821 15.9928 23.1678 15.9928C22.1338 15.9928 20.5722 14.8139 18.8905 14.8488C16.6985 14.9201 14.655 16.1754 13.5886 18.1058C11.2962 22.1037 13.0061 27.9794 15.2021 31.211C16.3008 32.7934 17.5848 34.5611 19.265 34.4984C20.9091 34.4297 21.5231 33.4423 23.5077 33.4423C25.4739 33.4423 26.05 34.4984 27.7643 34.4585C29.5285 34.4297 30.64 32.8691 31.7002 31.2716C32.4896 30.1441 33.097 28.8979 33.5 27.5792C31.4267 26.6959 30.0422 24.5942 30.0397 22.3267Z" fill="#1E1E1E"/>
<path d="M26.8018 12.6677C27.7637 11.5045 28.2376 10.0095 28.1229 8.5C26.6533 8.65548 25.2958 9.36298 24.3208 10.4815C23.3675 11.5744 22.8714 13.0432 22.9652 14.495C24.4353 14.5102 25.8806 13.8219 26.8018 12.6677Z" fill="#1E1E1E"/>
</svg>
