<svg xmlns="http://www.w3.org/2000/svg" width="16" height="16" viewBox="0 0 16 16" fill="none">
  <path fill-rule="evenodd" clip-rule="evenodd" d="M14.6673 8.00016C14.6673 8.66683 12.0007 12.6668 8.00065 12.6668C4.00065 12.6668 1.33398 8.66683 1.33398 8.00016C1.33398 7.3335 4.00065 3.3335 8.00065 3.3335C12.0007 3.3335 14.6673 7.3335 14.6673 8.00016ZM8.00065 5.3335C9.47341 5.3335 10.6673 6.5274 10.6673 8.00016C10.6673 9.47292 9.47341 10.6668 8.00065 10.6668C6.52789 10.6668 5.33398 9.47292 5.33398 8.00016C5.33398 6.5274 6.52789 5.3335 8.00065 5.3335Z" fill="#7A7E81"/>
  <path d="M9.33394 8.00012C9.33394 7.26374 8.73699 6.66679 8.00061 6.66679C7.26423 6.66679 6.66728 7.26374 6.66728 8.00012C6.66728 8.7365 7.26423 9.33346 8.00061 9.33346C8.73699 9.33346 9.33394 8.7365 9.33394 8.00012Z" fill="#7A7E81"/>
</svg>