<svg width="46" height="46" viewBox="0 0 46 46" fill="none" xmlns="http://www.w3.org/2000/svg">
<rect x="0.5" y="0.5" width="45" height="45" rx="7.5" fill="white"/>
<rect x="0.5" y="0.5" width="45" height="45" rx="7.5" stroke="#D1D4D7"/>
<path d="M23.8377 22.4842L14.5852 32.5889C14.5855 32.591 14.5862 32.5928 14.5866 32.5949C14.8703 33.6921 15.8443 34.5 17.0002 34.5C17.4623 34.5 17.8962 34.3715 18.2682 34.1458L18.2978 34.128L28.7126 27.9443L23.8377 22.4842Z" fill="#EA4335"/>
<path d="M33.1985 20.7636L33.1896 20.7573L28.6933 18.0753L23.6276 22.7134L28.7109 27.9432L33.1835 25.2878C33.9677 24.8522 34.5 24.0017 34.5 23.0208C34.5 22.047 33.9748 21.2006 33.1985 20.7636Z" fill="#FBBC04"/>
<path d="M14.5849 13.4107C14.5292 13.6217 14.5 13.8427 14.5 14.0723V31.9278C14.5 32.1569 14.5289 32.3787 14.5852 32.5889L24.1561 22.7428L14.5849 13.4107Z" fill="#4285F4"/>
<path d="M23.9059 22.9999L28.695 18.0736L18.2919 11.8675C17.9138 11.6345 17.4725 11.5 17.0002 11.5C15.8443 11.5 14.869 12.3094 14.5852 13.4079C14.5849 13.409 14.5849 13.4097 14.5849 13.4107L23.9059 22.9999Z" fill="#34A853"/>
</svg>
