<svg width="46" height="46" viewBox="0 0 46 46" fill="none" xmlns="http://www.w3.org/2000/svg">
<rect x="0.5" y="0.5" width="45" height="45" rx="7.5" fill="white"/>
<rect x="0.5" y="0.5" width="45" height="45" rx="7.5" stroke="#D1D4D7"/>
<path fill-rule="evenodd" clip-rule="evenodd" d="M28.029 11.5H17.971C13.233 11.5 11.5 13.233 11.5 17.971V28.0292C11.5 32.7671 13.233 34.5 17.971 34.5H28.0259C32.7639 34.5 34.5 32.7671 34.5 28.0292V17.971C34.5 13.233 32.767 11.5 28.029 11.5Z" fill="#C91C2E"/>
<path d="M21.5343 24.839H22.4567L21.994 23.763L21.5343 24.839ZM21.3072 25.3813L21.0336 26.0074H20.4107L21.7355 23.002H22.2737L23.5932 26.0074H22.9535L22.6833 25.3813H21.3072ZM31.3311 26.0053H31.9332V23.002H31.3311V26.0053ZM28.935 24.7148H30.0445V24.1675H28.935V23.5518H30.5457V23.0039H28.3331V26.0071H30.6038V25.4594H28.935V24.7148ZM26.5427 25.0697L25.86 23.0019H25.3622L24.6795 25.0697L24.0151 23.0033H23.3658L24.4139 26.0088H24.9189L25.6026 24.0346L26.2861 26.0088H26.7957L27.8411 23.0033H27.2085L26.5427 25.0697ZM19.4916 24.7231C19.4916 25.212 19.2488 25.4733 18.8079 25.4733C18.3647 25.4733 18.1206 25.2047 18.1206 24.7023V23.0037H17.5105V24.7231C17.5105 25.5691 17.9804 26.054 18.7997 26.054C19.627 26.054 20.1015 25.5598 20.1015 24.6983V23.0019H19.4916V24.7231ZM16.0547 23.002H16.6646V26.009H16.0547V24.7879H14.6769V26.009H14.0668V23.002H14.6769V24.2151H16.0547V23.002Z" fill="white"/>
<path d="M23 19.1733C20.8891 19.1733 19.1716 17.4558 19.1716 15.3449H19.7124C19.7124 17.1576 21.1871 18.6325 23 18.6325C24.8129 18.6325 26.2875 17.1576 26.2875 15.3449H26.8284C26.8284 17.4558 25.1109 19.1733 23 19.1733Z" fill="white"/>
</svg>
