<svg xmlns="http://www.w3.org/2000/svg" width="70" height="26" viewBox="0 0 70 26" fill="none">
  <path d="M24.7885 8.26897C24.5816 8.31608 24.3155 8.33964 23.9902 8.33964C23.3398 8.33964 22.7878 8.27839 22.3345 8.15589C21.891 8.02396 21.5164 7.8779 21.2109 7.71771L20.5604 9.47042C20.6984 9.54581 20.866 9.62591 21.0631 9.71071C21.27 9.79552 21.5115 9.87562 21.7875 9.95101C22.0733 10.0264 22.3985 10.0876 22.7632 10.1348C23.1279 10.1913 23.5369 10.2196 23.9902 10.2196C25.3405 10.2196 26.3507 9.96985 27.0209 9.47042C27.6911 8.96157 28.0262 8.25012 28.0262 7.33607C28.0262 6.86491 27.9621 6.46443 27.834 6.13462C27.7058 5.8048 27.5087 5.5174 27.2426 5.27239C26.9864 5.02739 26.6611 4.81537 26.2669 4.63633C25.8727 4.44787 25.4095 4.2594 24.8772 4.07094C24.621 3.98613 24.3845 3.90603 24.1676 3.83065C23.9607 3.74584 23.7734 3.65632 23.6059 3.56209C23.4482 3.45843 23.325 3.34535 23.2363 3.22285C23.1476 3.10035 23.1032 2.94958 23.1032 2.77054C23.1032 2.469 23.2215 2.24755 23.458 2.1062C23.7044 1.95543 24.1036 1.88005 24.6555 1.88005C25.1483 1.88005 25.5672 1.93659 25.9121 2.04967C26.2669 2.15332 26.5872 2.27582 26.873 2.41717L27.5383 0.678592C27.2131 0.508975 26.7991 0.353492 26.2965 0.212144C25.7938 0.0707963 25.1976 0.00012207 24.5077 0.00012207C23.9262 0.00012207 23.4038 0.0707963 22.9406 0.212144C22.4774 0.344069 22.0831 0.537244 21.7579 0.791669C21.4327 1.0461 21.1813 1.35706 21.0039 1.72457C20.8265 2.08265 20.7378 2.48784 20.7378 2.94016C20.7378 3.39247 20.8216 3.77882 20.9892 4.09921C21.1567 4.41017 21.3735 4.67873 21.6396 4.90489C21.9057 5.12162 22.2063 5.30538 22.5414 5.45615C22.8765 5.59749 23.2116 5.72471 23.5467 5.83779C24.3155 6.08279 24.8575 6.31366 25.1729 6.53039C25.4883 6.7377 25.646 7.00155 25.646 7.32194C25.646 7.47271 25.6214 7.60934 25.5721 7.73185C25.5228 7.85435 25.4341 7.96271 25.306 8.05694C25.1779 8.14175 25.0054 8.21243 24.7885 8.26897Z" fill="#008F91"/>
  <path fill-rule="evenodd" clip-rule="evenodd" d="M3.89388 10.1489C3.3321 10.1489 2.77032 10.13 2.20854 10.0924C1.65662 10.0641 1.08006 9.9887 0.47886 9.8662V0.367627C0.951936 0.282818 1.46936 0.221567 2.03114 0.183874C2.59292 0.136758 3.11527 0.113201 3.5982 0.113201C4.24868 0.113201 4.84495 0.160316 5.38702 0.254548C5.93894 0.339357 6.41202 0.490128 6.80625 0.706861C7.20048 0.923594 7.506 1.211 7.72283 1.56908C7.94951 1.91774 8.06285 2.35121 8.06285 2.86948C8.06285 3.65161 7.66862 4.26883 6.88016 4.72114C7.53064 4.95672 7.97415 5.27711 8.21069 5.6823C8.44723 6.0875 8.5655 6.54452 8.5655 7.05338C8.5655 8.0805 8.17127 8.8532 7.38281 9.37148C6.6042 9.88976 5.44123 10.1489 3.89388 10.1489ZM2.72597 5.75298V8.2831C2.89352 8.30195 3.07585 8.31608 3.27296 8.32551C3.47008 8.33493 3.6869 8.33964 3.92344 8.33964C4.61334 8.33964 5.17019 8.24541 5.59399 8.05694C6.01779 7.86848 6.22969 7.51982 6.22969 7.01097C6.22969 6.55866 6.05228 6.23827 5.69748 6.04981C5.34267 5.85192 4.8351 5.75298 4.17476 5.75298H2.72597ZM2.72597 4.07094H3.84952C4.55914 4.07094 5.06671 3.98613 5.37224 3.81651C5.67776 3.63747 5.83053 3.35478 5.83053 2.96843C5.83053 2.57265 5.67284 2.29467 5.35745 2.13447C5.04207 1.97428 4.57885 1.89418 3.96779 1.89418C3.77068 1.89418 3.55878 1.89889 3.3321 1.90832C3.10542 1.90832 2.90337 1.91774 2.72597 1.93659V4.07094Z" fill="#008F91"/>
  <path fill-rule="evenodd" clip-rule="evenodd" d="M17.1268 10.0217C17.0184 9.68244 16.8952 9.33379 16.7572 8.97571L16.3729 7.90146H12.3813C12.2532 8.25954 12.1201 8.61763 11.9821 8.97571C11.854 9.33379 11.7357 9.68244 11.6273 10.0217H9.23238C9.61675 8.96628 9.98141 7.99098 10.3264 7.09578C10.6713 6.20058 11.0064 5.3572 11.3316 4.56566C11.6667 3.77411 11.992 3.02496 12.3074 2.31823C12.6326 1.60206 12.9677 0.904748 13.3127 0.226279H15.5154C15.8505 0.904748 16.1807 1.60206 16.5059 2.31823C16.8312 3.02496 17.1564 3.77411 17.4816 4.56566C17.8167 5.3572 18.1568 6.20058 18.5017 7.09578C18.8467 7.99098 19.2113 8.96628 19.5957 10.0217H17.1268ZM14.3623 2.44544C14.313 2.58679 14.2391 2.77996 14.1405 3.02496C14.042 3.26997 13.9286 3.55266 13.8005 3.87305C13.6724 4.19344 13.5295 4.54681 13.3718 4.93316C13.224 5.31951 13.0712 5.72471 12.9135 6.14875H15.8259C15.6682 5.72471 15.5154 5.31951 15.3676 4.93316C15.2197 4.54681 15.0768 4.19344 14.9389 3.87305C14.8107 3.55266 14.6974 3.26997 14.5988 3.02496C14.5003 2.77996 14.4214 2.58679 14.3623 2.44544Z" fill="#008F91"/>
  <path fill-rule="evenodd" clip-rule="evenodd" d="M32.8756 0.113201C34.4033 0.113201 35.5761 0.372338 36.3941 0.890613C37.2122 1.39947 37.6212 2.23813 37.6212 3.4066C37.6212 4.5845 37.2072 5.4373 36.3794 5.965C35.5515 6.48327 34.3688 6.74241 32.8313 6.74241H32.1069V10.0217H29.8007V0.367627C30.3033 0.273395 30.8355 0.207433 31.3973 0.16974C31.9591 0.132047 32.4518 0.113201 32.8756 0.113201ZM33.0235 1.99313C32.8559 1.99313 32.6884 1.99784 32.5208 2.00726C32.3631 2.01668 32.2252 2.02611 32.1069 2.03553V4.86249H32.8313C33.6296 4.86249 34.2308 4.75883 34.6349 4.55152C35.039 4.34421 35.241 3.95786 35.241 3.39247C35.241 3.1192 35.1868 2.89304 35.0784 2.714C34.9798 2.53496 34.832 2.39361 34.6349 2.28996C34.4476 2.17688 34.216 2.10149 33.9401 2.0638C33.6641 2.01668 33.3586 1.99313 33.0235 1.99313Z" fill="#008F91"/>
  <path fill-rule="evenodd" clip-rule="evenodd" d="M44.7941 8.97571C44.9321 9.33379 45.0553 9.68244 45.1637 10.0217H47.6326C47.2482 8.96628 46.8835 7.99098 46.5386 7.09578C46.1936 6.20058 45.8536 5.3572 45.5185 4.56566C45.1933 3.77411 44.868 3.02496 44.5428 2.31823C44.2176 1.60206 43.8874 0.904748 43.5523 0.226279H41.3495C41.0046 0.904748 40.6695 1.60206 40.3443 2.31823C40.0289 3.02496 39.7036 3.77411 39.3685 4.56566C39.0433 5.3572 38.7082 6.20058 38.3633 7.09578C38.0183 7.99098 37.6536 8.96628 37.2693 10.0217H39.6642C39.7726 9.68244 39.8909 9.33379 40.019 8.97571C40.157 8.61763 40.2901 8.25954 40.4182 7.90146H44.4098L44.7941 8.97571ZM42.1774 3.02496C42.276 2.77996 42.3499 2.58679 42.3992 2.44544C42.4583 2.58679 42.5372 2.77996 42.6357 3.02496C42.7343 3.26997 42.8476 3.55266 42.9757 3.87305C43.1137 4.19344 43.2566 4.54681 43.4045 4.93316C43.5523 5.31951 43.7051 5.72471 43.8628 6.14875H40.9504C41.1081 5.72471 41.2608 5.31951 41.4087 4.93316C41.5664 4.54681 41.7093 4.19344 41.8374 3.87305C41.9655 3.55266 42.0789 3.26997 42.1774 3.02496Z" fill="#008F91"/>
  <path d="M55.8331 10.0217C55.1728 8.90032 54.4582 7.7931 53.6895 6.70001C52.9207 5.60692 52.1027 4.57508 51.2354 3.60449V10.0217H48.9587V0.226279H50.8362C51.1615 0.537244 51.5212 0.918883 51.9154 1.3712C52.3097 1.82351 52.7088 2.3088 53.1129 2.82708C53.5269 3.33593 53.9359 3.86834 54.3399 4.42431C54.744 4.97085 55.1235 5.49855 55.4783 6.0074V0.226279H57.7697V10.0217H55.8331Z" fill="#008F91"/>
  <path fill-rule="evenodd" clip-rule="evenodd" d="M66.6231 8.97571C66.761 9.33379 66.8842 9.68244 66.9926 10.0217H69.4615C69.0771 8.96628 68.7125 7.99098 68.3675 7.09578C68.0226 6.20058 67.6825 5.3572 67.3475 4.56566C67.0222 3.77411 66.697 3.02496 66.3717 2.31823C66.0465 1.60206 65.7163 0.904748 65.3812 0.226279H63.1785C62.8335 0.904748 62.4984 1.60206 62.1732 2.31823C61.8578 3.02496 61.5326 3.77411 61.1975 4.56566C60.8722 5.3572 60.5371 6.20058 60.1922 7.09578C59.8472 7.99098 59.4826 8.96628 59.0982 10.0217H61.4931C61.6016 9.68244 61.7198 9.33379 61.8479 8.97571C61.9859 8.61763 62.119 8.25954 62.2471 7.90146H66.2387L66.6231 8.97571ZM64.0064 3.02496C64.1049 2.77996 64.1788 2.58679 64.2281 2.44544C64.2872 2.58679 64.3661 2.77996 64.4646 3.02496C64.5632 3.26997 64.6765 3.55266 64.8047 3.87305C64.9426 4.19344 65.0856 4.54681 65.2334 4.93316C65.3812 5.31951 65.534 5.72471 65.6917 6.14875H62.7793C62.937 5.72471 63.0898 5.31951 63.2376 4.93316C63.3953 4.54681 63.5382 4.19344 63.6663 3.87305C63.7945 3.55266 63.9078 3.26997 64.0064 3.02496Z" fill="#008F91"/>
  <path d="M3.16241 25.0783C3.09813 24.9247 3.00493 24.7218 2.8828 24.4699C2.76711 24.2179 2.63534 23.9444 2.4875 23.6495C2.33967 23.3483 2.18862 23.041 2.03435 22.7276C1.88009 22.408 1.73225 22.11 1.59085 21.8334C1.44944 21.5569 1.3241 21.3141 1.21483 21.1052C1.10556 20.8962 1.02521 20.7487 0.97379 20.6627C0.890231 21.4309 0.82274 22.2667 0.771319 23.1701C0.726325 24.0673 0.684545 25.0107 0.645979 26.0001H0C0.0578489 24.8386 0.122125 23.7263 0.19283 22.6631C0.269962 21.5999 0.363163 20.5828 0.472433 19.6118H1.05092C1.24375 19.9191 1.44944 20.2755 1.66798 20.6811C1.88652 21.0806 2.10184 21.4985 2.31396 21.9348C2.5325 22.365 2.7414 22.7921 2.94065 23.2162C3.14634 23.6341 3.32631 24.012 3.48058 24.35C3.63484 24.012 3.8116 23.6341 4.01086 23.2162C4.21654 22.7921 4.42544 22.365 4.63755 21.9348C4.8561 21.4985 5.07464 21.0806 5.29318 20.6811C5.51172 20.2755 5.7174 19.9191 5.91023 19.6118H6.4598C6.56907 20.5828 6.65905 21.5999 6.72976 22.6631C6.80689 23.7263 6.87438 24.8386 6.93223 26.0001H6.26697C6.2284 25.0107 6.18341 24.0673 6.13199 23.1701C6.08699 22.2667 6.02272 21.4309 5.93916 20.6627C5.88773 20.7487 5.80739 20.8962 5.69812 21.1052C5.58885 21.3141 5.46351 21.5569 5.3221 21.8334C5.18069 22.11 5.03286 22.408 4.87859 22.7276C4.72433 23.041 4.57328 23.3483 4.42544 23.6495C4.27761 23.9444 4.14263 24.2179 4.0205 24.4699C3.9048 24.7218 3.81481 24.9247 3.75054 25.0783H3.16241Z" fill="#008F91"/>
  <path fill-rule="evenodd" clip-rule="evenodd" d="M19.4491 25.0967C19.5584 25.3856 19.6741 25.6867 19.7962 26.0001H20.5193C20.2558 25.3364 20.0116 24.7188 19.7866 24.1472C19.5616 23.5696 19.3399 23.0257 19.1213 22.5156C18.9092 21.9994 18.6971 21.5046 18.485 21.0314C18.2729 20.5582 18.0479 20.085 17.8101 19.6118H17.2316C16.9938 20.085 16.7688 20.5582 16.5567 21.0314C16.3446 21.5046 16.1293 21.9994 15.9107 22.5156C15.6986 23.0257 15.4801 23.5696 15.2551 24.1472C15.0301 24.7188 14.7891 25.3364 14.532 26.0001H15.2165C15.3322 25.6867 15.4447 25.3856 15.554 25.0967C15.6632 24.8079 15.7725 24.5252 15.8818 24.2486H19.131C19.2338 24.5252 19.3399 24.8079 19.4491 25.0967ZM16.7881 21.9441C17.0195 21.3971 17.2573 20.8594 17.5016 20.3308C17.7458 20.8594 17.9836 21.3971 18.215 21.9441C18.4464 22.491 18.6842 23.081 18.9285 23.714H16.0843C16.3285 23.081 16.5631 22.491 16.7881 21.9441Z" fill="#008F91"/>
  <path fill-rule="evenodd" clip-rule="evenodd" d="M32.7315 21.5292C32.7315 22.0086 32.5997 22.3865 32.3362 22.6631C32.0727 22.9396 31.7256 23.1394 31.2949 23.2623C31.3978 23.3852 31.5295 23.5511 31.6902 23.7601C31.8573 23.969 32.0277 24.1995 32.2012 24.4514C32.3748 24.6973 32.5451 24.9554 32.7122 25.2258C32.8793 25.4962 33.0207 25.7543 33.1364 26.0001H32.4326C32.2976 25.7543 32.1498 25.5085 31.9891 25.2627C31.8348 25.0168 31.6741 24.7802 31.507 24.5528C31.3463 24.3193 31.1889 24.1042 31.0346 23.9076L30.6296 23.3913C30.424 23.4098 30.2183 23.419 30.0126 23.419H28.9327V26.0001H28.2771V19.7317C28.5085 19.6702 28.7785 19.6272 29.087 19.6026C29.402 19.5719 29.6912 19.5565 29.9547 19.5565C30.8739 19.5565 31.5649 19.7224 32.0277 20.0543C32.4969 20.3862 32.7315 20.8778 32.7315 21.5292ZM30.0319 20.1004C29.7876 20.1004 29.5723 20.1096 29.3859 20.128C29.2059 20.1403 29.0549 20.1526 28.9327 20.1649V22.8843H29.839C30.1411 22.8843 30.4272 22.872 30.6971 22.8475C30.9671 22.8167 31.2017 22.7553 31.401 22.6631C31.6002 22.5648 31.7577 22.4265 31.8734 22.2483C31.9891 22.07 32.0469 21.8273 32.0469 21.52C32.0469 21.2373 31.9891 21.0038 31.8734 20.8194C31.7577 20.6351 31.6066 20.4906 31.4202 20.3862C31.2338 20.2755 31.0185 20.2018 30.7743 20.1649C30.5364 20.1219 30.289 20.1004 30.0319 20.1004Z" fill="#008F91"/>
  <path d="M44.3703 25.0506C44.6467 25.3641 44.8942 25.6806 45.1127 26.0001H45.8455C45.7491 25.828 45.6237 25.6406 45.4695 25.4378C45.3216 25.235 45.1513 25.0261 44.9585 24.811C44.7721 24.5959 44.5696 24.3838 44.3511 24.1749C44.139 23.9598 43.9204 23.757 43.6954 23.5665C43.4769 23.3698 43.2584 23.1916 43.0398 23.0318C42.8277 22.8659 42.6284 22.7276 42.442 22.617C42.6734 22.4142 42.9338 22.1807 43.223 21.9164C43.5187 21.646 43.8144 21.3725 44.11 21.096C44.4057 20.8194 44.6853 20.5521 44.9488 20.294C45.2124 20.0297 45.4373 19.8023 45.6237 19.6118H44.8331C44.6789 19.7839 44.4732 19.9959 44.2161 20.2479C43.959 20.4998 43.6826 20.7641 43.3869 21.0407C43.0977 21.3172 42.802 21.5938 42.4999 21.8703C42.2042 22.1407 41.9343 22.3804 41.69 22.5893V19.6118H41.0344V26.0001H41.69V22.8382C41.9793 22.9919 42.2781 23.1824 42.5867 23.4098C42.9016 23.6372 43.2102 23.8891 43.5123 24.1657C43.8144 24.4422 44.1004 24.7372 44.3703 25.0506Z" fill="#008F91"/>
  <path d="M53.6033 26.0001V19.6118H57.4599V20.1557H54.259V22.3773H57.1128V22.912H54.259V25.4562H57.7106V26.0001H53.6033Z" fill="#008F91"/>
  <path d="M69.9909 20.1557V19.6118H65.0544V20.1557H67.1948V26.0001H67.8505V20.1557H69.9909Z" fill="#008F91"/>
  <path d="M70 15.2452H0.581297V15.8598H70V15.2452Z" fill="#008F91"/>
</svg>