<svg xmlns="http://www.w3.org/2000/svg" width="37" height="36" viewBox="0 0 37 36" fill="none">
  <path fill-rule="evenodd" clip-rule="evenodd" d="M23.9817 4.59091C23.9817 2.05939 26.0238 0 28.5339 0C31.044 0 33.0861 2.05939 33.0861 4.59091C33.0861 7.12241 31.0444 9.1818 28.5339 9.1818C26.0238 9.1818 23.9817 7.12241 23.9817 4.59091ZM26.2578 4.59091C26.2578 5.85685 27.2786 6.88634 28.5339 6.88634C29.7891 6.88634 30.81 5.85678 30.81 4.59091C30.81 3.32494 29.7893 2.29546 28.5339 2.29546C27.2786 2.29546 26.2578 3.32494 26.2578 4.59091Z" fill="#ADB0B3"/>
  <path fill-rule="evenodd" clip-rule="evenodd" d="M13.9289 6.80968C13.9289 4.27819 15.9709 2.2188 18.4811 2.2188C20.9912 2.2188 23.0333 4.27819 23.0333 6.80968C23.0333 9.34121 20.9912 11.4006 18.4811 11.4006C15.9709 11.4006 13.9289 9.34121 13.9289 6.80968ZM16.205 6.80968C16.205 8.07565 17.2258 9.10514 18.4811 9.10514C19.7364 9.10514 20.7572 8.07565 20.7572 6.80968C20.7572 5.54371 19.7364 4.51422 18.4811 4.51422C17.2258 4.51422 16.205 5.54371 16.205 6.80968Z" fill="#ADB0B3"/>
  <path fill-rule="evenodd" clip-rule="evenodd" d="M16.2429 12.0509H20.7572C21.0799 12.0509 21.3965 12.0781 21.7047 12.1304C22.7776 10.6707 24.4681 9.79385 26.2956 9.79385H30.8099C33.9475 9.79385 36.5001 12.3682 36.5 15.5324V22.7631C36.5 23.397 35.9906 23.9108 35.3619 23.9108H33.949L33.2722 32.6844C33.2263 33.2824 32.7319 33.7434 32.1376 33.7434H24.93C24.3351 33.7434 23.8404 33.2813 23.7952 32.6833L23.6149 30.3069L23.2574 34.941C23.2113 35.539 22.7169 36 22.1228 36H14.9152C14.3226 36 13.8291 35.5413 13.781 34.9456L13.374 29.9237L13.1667 32.6825C13.122 33.2809 12.6273 33.7434 12.0321 33.7434H4.82451C4.23042 33.7434 3.73576 33.2824 3.68989 32.6844L3.01313 23.9109H1.63805C1.00949 23.9109 0.5 23.3971 0.5 22.7632V15.5708C0.5 12.4065 3.05268 9.83211 6.19025 9.83211H10.7044C12.5177 9.83211 14.1962 10.6954 15.2699 12.1348C15.5862 12.0796 15.9113 12.0509 16.2429 12.0509ZM10.5528 25.0205C10.5528 25.5448 10.9012 25.9868 11.3772 26.1241L10.9772 31.448H5.87769L5.20052 22.6744C5.15465 22.0764 4.65999 21.6154 4.0659 21.6154H2.7761V15.5708C2.7761 13.6724 4.30788 12.1276 6.19025 12.1276H10.7044C11.5826 12.1276 12.4088 12.4657 13.0357 13.0514C11.5376 14.0861 10.5528 15.824 10.5528 17.7895V25.0205ZM26.4473 17.7896C26.4473 15.8137 25.4521 14.0679 23.9407 13.0352C24.5703 12.4359 25.4064 12.0893 26.2956 12.0893H30.8095C32.6921 12.0893 34.2236 13.6341 34.2236 15.5324V21.6154H32.8959C32.3018 21.6154 31.8074 22.0764 31.7612 22.6744L31.0844 31.4479H25.9841L25.5809 26.1349C26.0783 26.0121 26.4473 25.5596 26.4473 25.0201V17.7896ZM22.8816 23.8725H24.1714L24.1711 17.7896C24.1711 15.8913 22.6397 14.3465 20.7571 14.3465H16.2428C14.3605 14.3465 12.8288 15.8913 12.8288 17.7896V23.8725H14.1186C14.7111 23.8725 15.2047 24.3309 15.2528 24.9269L15.9641 33.7047H21.0702L21.747 24.9315C21.7932 24.3335 22.2875 23.8725 22.8816 23.8725Z" fill="#ADB0B3"/>
  <path fill-rule="evenodd" clip-rule="evenodd" d="M3.87625 4.59091C3.87625 2.05939 5.91834 0 8.42845 0C10.9386 0 12.9807 2.05939 12.9807 4.59091C12.9807 7.12241 10.9387 9.1818 8.42845 9.1818C5.91834 9.1818 3.87625 7.12241 3.87625 4.59091ZM6.15235 4.59091C6.15235 5.85685 7.17326 6.88634 8.42845 6.88634C9.68378 6.88634 10.7046 5.85678 10.7046 4.59091C10.7046 3.32494 9.68337 2.29546 8.42845 2.29546C7.17326 2.29546 6.15235 3.32494 6.15235 4.59091Z" fill="#ADB0B3"/>
</svg>